# xmcd CD database file
#
# Track frame offsets:
#	150
#	23962
#	43762
#	66637
#	84487
#	111862
#	135862
#
# Disc length: 2007 seconds
#
# Revision: 4
# Processed by: cddbd v1.5.2PL0 Copyright (c) Steve Scherf et al.
# Submitted via: CDex 1.70beta3
#
DISCID=5b07d507
DTITLE=Helen Merrill - Helen Merrill with Clifford Brown
DYEAR=1900
DGENRE=Jazz
TTITLE0=Don't Explain
TTITLE1=You'd Be So Nice To Come Home To
TTITLE2=What's New
TTITLE3=Falling In Love With Love
TTITLE4=Yesterdays
TTITLE5=Born To Be Blue
TTITLE6='S Wonderful
EXTD=
EXTT0=
EXTT1=
EXTT2=
EXTT3=
EXTT4=
EXTT5=
EXTT6=
PLAYORDER=
